PathFileType	4	(X/Y/Z)	C:\Users\chris\Documents\GitHub\baseballds\vids\pitch6_Sports2D\pitch6_Sports2D_px_person00.trc
DataRate	CameraRate	NumFrames	NumMarkers	Units	OrigDataRate	OrigDataStartFrame	OrigNumFrames
30	30	13	22	m	30	69	186
Frame#	Time	Hip			RHip			RKnee			RAnkle			RBigToe			RSmallToe			RHeel			LHip			LKnee			LAnkle			LBigToe			LSmallToe			LHeel			Neck			Head			Nose			RShoulder			RElbow			RWrist			LShoulder			LElbow			LWrist		
		X1	Y1	Z1	X2	Y2	Z2	X3	Y3	Z3	X4	Y4	Z4	X5	Y5	Z5	X6	Y6	Z6	X7	Y7	Z7	X8	Y8	Z8	X9	Y9	Z9	X10	Y10	Z10	X11	Y11	Z11	X12	Y12	Z12	X13	Y13	Z13	X14	Y14	Z14	X15	Y15	Z15	X16	Y16	Z16	X17	Y17	Z17	X18	Y18	Z18	X19	Y19	Z19	X20	Y20	Z20	X21	Y21	Z21	X22	Y22	Z22
69	2.3	713.1415585679624	645.0454013947983	0.0	665.4487692663532	652.8353356974989	0.0	661.4312874971405	823.3515008864417	0.0	656.84681623728	978.5473078725834	0.0	654.5721036634851	1032.4424448346663	0.0	627.935345025047	1027.3621995211636	0.0	667.4487012823167	997.9295685211592	0.0	760.5787368831964	654.2073493759282	0.0	774.9244538342666	822.7772392714905	0.0	803.1052512183614	966.237810597582	0.0	779.1382567431643	1022.0813368882968	0.0	809.5052836716467	1019.5576390841802	0.0	812.1519716286347	983.2446223522586	0.0	714.0875192770227	385.8503212381885	0.0	730.1329226112564	270.1294494857315	0.0	761.1610263360498	331.35171832115765	0.0	636.303303722024	432.2786017565527	0.0	600.3235399990217	550.0603411042918	0.0	674.2482479041782	565.1554225480033	0.0	793.9380770115686	424.4922002843863	0.0	823.8910903118305	540.4786714193269	0.0	779.3936239374354	588.670310921701	0.0
70	2.3333333333333335	714.333506764466	645.6738387580488	0.0	666.6660868118956	653.1084075435721	0.0	662.4037744804682	824.0340999941437	0.0	657.7033342799529	979.2335084254165	0.0	653.8321406380767	1032.906832492982	0.0	628.0529002952668	1027.8432734447529	0.0	667.7747599537187	999.3808309842034	0.0	761.646057659174	654.9593457473846	0.0	774.8994005092346	822.9873073033984	0.0	803.5410949241465	966.567534747463	0.0	778.5568769568796	1022.4189078606219	0.0	808.7689594922499	1020.3297829917117	0.0	812.8042076836641	983.3262955010584	0.0	715.8758662466305	386.63655751886955	0.0	731.593901826696	270.11205872501637	0.0	757.9155070211796	331.51983462988545	0.0	638.3510858542973	432.6100849219814	0.0	600.0592305759441	548.5939402370798	0.0	672.1539620141111	564.347072323982	0.0	794.4436382511382	424.93902955125907	0.0	824.5776589172012	540.3116589998831	0.0	778.8983312156329	587.0743711937382	0.0
71	2.3666666666666667	715.3347617873471	645.9228308258928	0.0	667.989722873754	652.9614767913724	0.0	663.3179977183961	824.3907422137755	0.0	658.2830975902839	978.9549660651318	0.0	653.4681324948027	1034.2408854268979	0.0	628.1723850924509	1028.532225123504	0.0	668.6968344384271	999.1280091125495	0.0	762.1304335047275	654.9784792138406	0.0	775.1613570652767	823.1829748241555	0.0	803.7684112083596	967.2054814983386	0.0	778.3621988719163	1023.3718274107432	0.0	808.6789655313086	1021.3150543026139	0.0	813.4220494308017	983.7695373607534	0.0	717.090642173726	387.6534086806344	0.0	732.2061361487767	270.56008675891786	0.0	754.1561255782898	331.64399164289483	0.0	639.918632485684	432.76102531562145	0.0	601.3826321944936	548.2787625988859	0.0	672.8702734585268	566.1017806036706	0.0	794.6697686457434	425.27161633735636	0.0	824.9131092788474	541.8901190569871	0.0	776.5806933422834	586.3651473876618	0.0
72	2.4	716.4620240461667	645.1985734896887	0.0	669.4390746889517	652.6701673694074	0.0	664.087769051364	824.1370443573946	0.0	658.6559703184209	978.2588047033232	0.0	654.0898740956618	1035.1244893395342	0.0	629.0011184344265	1028.9444759801468	0.0	670.0419712857349	998.8142414024882	0.0	762.6542673995516	654.3486444169973	0.0	775.9026870457495	822.9432004683504	0.0	804.138758523816	968.0218411865064	0.0	778.3869886514155	1024.2580877432	0.0	809.210474023156	1021.958947730689	0.0	814.1891168128307	984.736588054811	0.0	717.8861612886556	388.5305856977804	0.0	732.2985102822516	271.09382300226235	0.0	751.3958792938333	332.47960609121736	0.0	640.7836760704445	432.6771477735905	0.0	604.046189236923	548.9857484515245	0.0	676.8242257769095	568.6025524700042	0.0	795.0116044134109	425.0353840318238	0.0	825.2971379093783	543.0381437208622	0.0	775.5049504875487	586.5507204764872	0.0
73	2.433333333333333	717.9605757156412	643.8491286391061	0.0	670.9906147462972	652.3747782585168	0.0	664.9059419008693	823.2973762350539	0.0	659.0330420646533	977.7813588780406	0.0	655.7379859625537	1034.1585629520619	0.0	630.3934113702703	1028.4416410129054	0.0	670.9927329177078	999.5220478583449	0.0	763.7770685582257	653.8107129932955	0.0	776.8060277368605	822.1602951686418	0.0	804.8020597720742	968.740709779118	0.0	778.6017803053395	1023.9139202012025	0.0	809.9831028605101	1022.0810117988059	0.0	815.1464972495464	986.0157194528001	0.0	718.59967693922	388.9226109136365	0.0	732.0466608557688	271.677695700106	0.0	750.2309305127249	334.3967560471113	0.0	641.5431894301333	432.30169335180585	0.0	607.2498953299073	548.6103359778399	0.0	681.1376919733586	569.446453406925	0.0	795.5797449976018	424.1954868136825	0.0	825.9149640978995	542.0410875414157	0.0	777.170131391181	587.2596379480286	0.0
74	2.466666666666667	719.2182469917024	642.4248264891077	0.0	672.1337321525236	651.5209460123323	0.0	665.8895429186061	822.2476810457504	0.0	659.4552670878903	977.4729016811855	0.0	657.6419502796721	1032.3027816422339	0.0	631.5424345516196	1027.2471270407918	0.0	671.3134934330874	999.3800139711116	0.0	765.2501885365194	653.2452017659109	0.0	777.6782562927832	821.3411770983555	0.0	805.4260731870299	968.465116523304	0.0	779.5630086533764	1022.6279935787456	0.0	811.14517127075	1021.5619295723889	0.0	815.89223983568	986.3720982813069	0.0	719.3765282934412	388.98771132109346	0.0	731.8290808157551	272.4461458661642	0.0	750.2402509429232	336.5893025534385	0.0	642.4676056633739	431.93364594834844	0.0	609.4622881123321	547.0741615222082	0.0	682.7729799740567	568.883219729405	0.0	796.3577668321825	423.25484161626713	0.0	826.6771270089873	540.1412487831974	0.0	779.8117406072328	587.5165567730023	0.0
75	2.5	719.8347660698112	641.4790723028161	0.0	672.8609186624856	650.1956706395117	0.0	666.8332558943966	821.6362548684936	0.0	659.9710258097812	977.0718324061681	0.0	658.7648395246554	1031.4604137910057	0.0	632.043119625826	1026.4150232215825	0.0	671.4996133159602	997.2746292179048	0.0	766.4602819338354	652.1543900310276	0.0	778.5226796009661	821.0268049633162	0.0	805.8600154028074	967.0475443835929	0.0	781.1937680953067	1021.7907618109339	0.0	812.5457570445186	1020.4386785881964	0.0	816.2416795006837	985.1987050800817	0.0	720.1969904962774	389.0531781534838	0.0	732.2229699293251	273.4444852339837	0.0	750.6322858170366	338.5667618958929	0.0	643.3319778864761	431.9296296695867	0.0	610.0684643509903	545.9859108639477	0.0	681.7227878826125	568.4104542601506	0.0	797.3284022514001	422.89367553824	0.0	827.3981600838575	539.3029859604056	0.0	781.517523418371	586.9174659826897	0.0
76	2.533333333333333	720.4761556831883	641.3433700862948	0.0	673.7416490025355	649.431919398006	0.0	667.589250634015	821.7676965039731	0.0	660.8047269725223	976.6657350210476	0.0	659.0501026641617	1031.5418010767705	0.0	632.372974216398	1026.276622687231	0.0	671.9518669892647	995.3645239946011	0.0	767.3757897685916	651.0680771410097	0.0	779.3727309855497	820.9524071661707	0.0	806.4881640871008	965.9212444375552	0.0	782.5997422208466	1021.9413666947299	0.0	813.3975464652206	1019.5270754546326	0.0	816.5579503549303	984.001382585745	0.0	721.3020795550796	389.1731047314915	0.0	733.3179512384763	274.542004151583	0.0	750.6669733495334	340.86196968993613	0.0	644.3110245821048	432.13916649849375	0.0	610.7540392194343	545.6291237120246	0.0	680.7052901220143	568.1227176072741	0.0	798.2649979897928	423.04483988870993	0.0	827.8598600326358	539.1432492819675	0.0	782.6501558866761	586.3005048753977	0.0
77	2.5666666666666664	721.7660581173702	641.4283826502344	0.0	674.7649478597655	649.3328671596856	0.0	668.195830524829	822.0519508622281	0.0	662.0455190259809	976.4599613959538	0.0	659.4629866359542	1031.0491966171355	0.0	633.2038224564724	1025.9440266866372	0.0	672.6242530269495	995.5306922418406	0.0	768.3514698919275	650.6712793005883	0.0	780.2582296985479	820.4297134819132	0.0	807.5530732704799	965.9750551333877	0.0	783.3058109546994	1022.0924357865842	0.0	813.4774669692792	1019.3963650845833	0.0	817.0084799441978	984.1646949003464	0.0	723.0605889001873	389.2009460125796	0.0	734.8658061618191	275.3204441390438	0.0	750.0906586137166	343.40020875839247	0.0	645.7045744444995	432.00054581002445	0.0	612.7925666149087	545.3375369009432	0.0	682.2716099401589	567.8593652447446	0.0	798.9943251114756	422.8893747614367	0.0	828.2936293173491	537.8458928162131	0.0	784.1145579728054	586.3903227745507	0.0
78	2.6	723.1061801349823	640.2961491867145	0.0	675.5912282076637	648.3623275149714	0.0	668.7067847921119	821.6180537657258	0.0	663.3481244318866	976.2482318577561	0.0	660.575252524949	1029.8168203030941	0.0	634.34206732705	1024.9698007878515	0.0	673.3893932125973	996.5367926524998	0.0	769.2640124427433	650.1206681544292	0.0	781.1695605190762	819.3511384077104	0.0	808.5659840228203	966.2659239686833	0.0	783.5359971320047	1021.217372708704	0.0	813.2849774835948	1019.4533511395352	0.0	817.2987995687786	984.9206694983718	0.0	725.0624889445659	388.784287910305	0.0	736.5186408868518	275.3083821903561	0.0	749.4204098071725	345.15834249739817	0.0	646.8899138611841	431.394024191453	0.0	615.1258129098446	545.860424344977	0.0	686.4708551781557	568.0953055502863	0.0	799.7182388493837	422.17003363438334	0.0	829.0440606674966	535.5813021468628	0.0	785.7405031683563	586.7086678863595	0.0
79	2.6333333333333333	723.7280063350015	638.0798998974719	0.0	676.4613994398145	646.2274625792747	0.0	669.1910161852159	820.5883587927586	0.0	664.264967003028	975.601952889894	0.0	661.6722291767056	1029.0413968131727	0.0	635.0144232831146	1024.146489919578	0.0	674.231684090925	996.5790716077995	0.0	770.0166309039244	648.801003586287	0.0	782.0033320677721	818.434240880283	0.0	809.1050380560766	965.7578828219218	0.0	783.4880086172253	1019.7734044555837	0.0	813.2570257049458	1019.0608562925984	0.0	817.5376893145457	984.8292722283251	0.0	726.2743416045371	387.8477920926591	0.0	737.9353078666232	274.7226821954975	0.0	749.340907893825	345.8852611531387	0.0	647.172988993635	430.881480096594	0.0	616.8145165845208	547.9747830291127	0.0	691.2726252571532	568.5192826275123	0.0	800.6207323433507	421.5151231366682	0.0	829.7009427479129	534.4622873363368	0.0	787.0558979357519	586.4582038246431	0.0
80	2.6666666666666665	724.0644949485314	637.3726148919308	0.0	677.6823605745262	645.3674733677037	0.0	669.6797381973773	819.9244642758933	0.0	664.8340175081862	974.6210416568185	0.0	662.0626840704049	1029.032204245757	0.0	635.2114475094008	1024.0462800670998	0.0	674.8849487787155	995.8905801093266	0.0	771.1538678876927	648.3483274015193	0.0	782.6401351966953	818.3551073839111	0.0	809.5523601358234	964.6924816941989	0.0	783.4258122818246	1019.0555858709492	0.0	813.8823004200058	1018.3840207257355	0.0	818.0850844660488	983.5255703480964	0.0	726.5073554766955	387.3872338998778	0.0	739.2832328099115	274.4708239617774	0.0	750.1762707933436	346.3148493169612	0.0	647.3382060001418	430.8062480195289	0.0	618.2061436919336	549.6144864930986	0.0	694.1521121262095	568.4294059729343	0.0	801.5540338953984	421.38071574006483	0.0	829.7856158352565	534.9954894223409	0.0	787.8648733845935	585.905632487285	0.0
81	2.7	724.887360245981	639.0582379737685	0.0	679.0524992844553	646.8866887396881	0.0	670.2842015910012	819.8444399128344	0.0	665.3194618451898	973.6115985956299	0.0	662.2158085260857	1029.0232666949673	0.0	635.5943636863826	1024.1697832249895	0.0	675.0637007404247	995.3476471923781	0.0	772.7196028050852	649.7132224172525	0.0	783.1748033862226	818.5163995469234	0.0	810.1844002152411	963.8281915827894	0.0	783.8557544473738	1019.400971027872	0.0	815.2124527124221	1017.8569982446868	0.0	818.6695509515238	982.1627944470245	0.0	726.6495037406405	388.0747435111716	0.0	740.8747991891494	274.8729406284026	0.0	751.7235304400209	346.606965123966	0.0	648.4521346204208	430.87862583706874	0.0	619.4983966349049	548.7113659116313	0.0	693.9817200572174	568.1901497645501	0.0	802.4395888051313	421.51981389705213	0.0	829.6178174176248	535.7148882786772	0.0	788.2470858165308	585.7486676069332	0.0
